<?xml version="1.0" encoding="utf-8"?>
<!-- Generator: Adobe Illustrator 16.0.0, SVG Export Plug-In . SVG Version: 6.00 Build 0)  -->
<!DOCTYPE svg PUBLIC "-//W3C//DTD SVG 1.1//EN" "http://www.w3.org/Graphics/SVG/1.1/DTD/svg11.dtd">
<svg version="1.1" id="Layer_1" xmlns="http://www.w3.org/2000/svg" xmlns:xlink="http://www.w3.org/1999/xlink" x="0px" y="0px"
	 width="200px" height="200px" viewBox="0 0 200 200" enable-background="new 0 0 200 200" xml:space="preserve">
<g>
	<g>
		<g>
			<g>
				<g>
					
						<line fill="none" stroke="#000000" stroke-width="1.7" stroke-linecap="round" stroke-linejoin="round" x1="52.312" y1="54.386" x2="146.08" y2="148.154"/>
					<g>
						<polygon points="51.378,63.285 53.079,63.225 52.771,54.848 61.149,55.154 61.209,53.454 51.007,53.083 						"/>
					</g>
					<g>
						<polygon points="137.181,149.088 137.241,147.388 145.617,147.694 145.312,139.316 147.013,139.256 147.383,149.459 						"/>
					</g>
				</g>
			</g>
			<g>
				<g>
					
						<line fill="none" stroke="#000000" stroke-width="1.7" stroke-linecap="round" stroke-linejoin="round" x1="147.552" y1="54.386" x2="53.783" y2="148.154"/>
					<g>
						<polygon points="138.652,53.453 138.713,55.153 147.089,54.846 146.783,63.224 148.484,63.284 148.854,53.081 						"/>
					</g>
					<g>
						<polygon points="52.85,139.255 54.55,139.315 54.243,147.691 62.621,147.386 62.681,149.087 52.479,149.457 						"/>
					</g>
				</g>
			</g>
		</g>
	</g>
	<path fill="none" stroke="#000000" stroke-width="4" stroke-miterlimit="10" d="M22.687,41.398c0,0,0,38.169,0,52.188
		c0,60.674,50.641,96.08,77.315,96.08c26.67,0,77.312-35.406,77.312-96.08c0-14.019,0-52.188,0-52.188l-77.312-25.732L22.687,41.398
		z M58.251,51.708c0.02,0,0.034-0.006,0.051-0.006"/>
</g>
</svg>
