<?xml version="1.0" encoding="utf-8"?>
<!-- Generator: Adobe Illustrator 16.0.0, SVG Export Plug-In . SVG Version: 6.00 Build 0)  -->
<!DOCTYPE svg PUBLIC "-//W3C//DTD SVG 1.1//EN" "http://www.w3.org/Graphics/SVG/1.1/DTD/svg11.dtd">
<svg version="1.1" id="Layer_1" xmlns="http://www.w3.org/2000/svg" xmlns:xlink="http://www.w3.org/1999/xlink" x="0px" y="0px"
	 width="200px" height="200px" viewBox="0 0 200 200" enable-background="new 0 0 200 200" xml:space="preserve">
<g>
	<g>
		<path fill="#262626" d="M23.023,52.584c-0.03-0.032,2.028-5.556,1.631-10.329c-0.42-4.805-3.768-7.191-3.806-7.17
			c-0.039-0.042-3.419,6.155-2.575,11.063C19.081,51.018,23.054,52.563,23.023,52.584z"/>
		<path fill="#262626" d="M31.936,52.071c3.765-2.133,6.503-6.642,6.552-6.656c0.006,0.029-3.69-2.071-7.818-0.027
			c-4.181,2.063-6.565,7.644-6.512,7.625C24.168,53.042,28.124,54.217,31.936,52.071z"/>
		<path fill="#262626" d="M19.609,63.986c-0.03-0.028,1.159-5.662,0.011-10.213c-1.174-4.579-4.853-6.432-4.884-6.41
			c-0.041-0.036-2.376,6.384-0.793,11.028C15.487,62.998,19.636,63.962,19.609,63.986z"/>
		<path fill="#262626" d="M28.322,62.287c3.388-2.574,5.359-7.281,5.404-7.301c0.01,0.029-3.957-1.509-7.692,1.011
			c-3.785,2.545-5.285,8.276-5.238,8.252C20.808,64.278,24.892,64.879,28.322,62.287z"/>
		<path fill="#262626" d="M17.924,75.553c-0.033-0.025,0.325-5.688-1.493-9.949c-1.848-4.291-5.763-5.586-5.789-5.561
			c-0.042-0.033-1.374,6.514,0.866,10.828C13.705,75.15,17.947,75.528,17.924,75.553z"/>
		<path fill="#262626" d="M26.29,72.7c2.974-2.974,4.206-7.808,4.244-7.83c0.011,0.027-4.129-0.932-7.438,2.022
			c-3.352,2.982-4.002,8.781-3.959,8.755C19.15,75.674,23.28,75.699,26.29,72.7z"/>
		<path fill="#262626" d="M17.896,87.113c-0.034-0.023-0.47-5.629-2.883-9.544c-2.446-3.938-6.506-4.662-6.526-4.636
			c-0.044-0.027-0.417,6.549,2.405,10.47C13.668,87.298,17.915,87.084,17.896,87.113z"/>
		<path fill="#262626" d="M19.108,87.038c0.019,0.025,4.111-0.523,6.666-3.879c2.525-3.327,3.046-8.215,3.078-8.241
			c0.017,0.026-4.215-0.347-7.062,2.996C18.905,81.288,19.073,87.068,19.108,87.038z"/>
		<path fill="#262626" d="M19.458,98.493c-0.038-0.019-1.23-5.486-4.161-9c-2.966-3.53-7.088-3.678-7.106-3.649
			c-0.045-0.023,0.503,6.483,3.83,9.96C15.299,99.256,19.472,98.462,19.458,98.493z"/>
		<path fill="#262626" d="M26.715,93.508c2.047-3.629,1.879-8.499,1.908-8.526c0.02,0.024-4.219,0.239-6.572,3.915
			c-2.386,3.712-1.437,9.389-1.404,9.353C20.67,98.272,24.645,97.167,26.715,93.508z"/>
		<path fill="#262626" d="M14.817,107.889c3.711,2.961,7.731,1.604,7.722,1.635c-0.04-0.014-1.955-5.261-5.332-8.323
			c-3.415-3.074-7.515-2.649-7.527-2.618C9.631,98.562,11.059,104.906,14.817,107.889z"/>
		<path fill="#262626" d="M29.051,103.593c1.536-3.872,0.71-8.653,0.734-8.683c0.02,0.022-4.142,0.817-5.974,4.77
			c-1.858,3.993-0.153,9.481-0.126,9.44C23.708,109.141,27.493,107.496,29.051,103.593z"/>
		<path fill="#262626" d="M27.069,120.034c-0.041-0.009-2.643-4.955-6.394-7.518c-3.791-2.577-7.792-1.592-7.799-1.56
			c-0.049-0.014,2.213,6.069,6.334,8.512C23.28,121.899,27.077,120.001,27.069,120.034z"/>
		<path fill="#262626" d="M32.716,113.259c1.001-4.052-0.46-8.669-0.442-8.701c0.025,0.017-3.987,1.378-5.269,5.543
			c-1.302,4.208,1.122,9.417,1.143,9.375C28.177,119.494,31.701,117.341,32.716,113.259z"/>
		<path fill="#262626" d="M32.985,129.853c-0.042-0.004-3.293-4.562-7.353-6.596c-4.1-2.04-7.927-0.509-7.931-0.477
			c-0.05-0.008,3.01,5.718,7.421,7.581C29.483,132.22,32.989,129.818,32.985,129.853z"/>
		<path fill="#262626" d="M37.651,122.35c0.439-4.161-1.628-8.542-1.614-8.579c0.027,0.017-3.761,1.913-4.465,6.224
			c-0.723,4.354,2.39,9.2,2.407,9.155C34.007,129.164,37.201,126.545,37.651,122.35z"/>
		<path fill="#262626" d="M40.212,138.804c-0.044,0.005-3.912-4.086-8.21-5.554c-4.343-1.465-7.921,0.575-7.921,0.606
			c-0.052,0.001,3.762,5.272,8.401,6.527C37.067,141.637,40.209,138.772,40.212,138.804z"/>
		<path fill="#262626" d="M41.098,137.973c0.032,0.01,2.834-3.026,2.694-7.264c-0.146-4.195-2.793-8.266-2.783-8.302
			c0.029,0.012-3.465,2.414-3.571,6.792C37.318,133.624,41.086,138.019,41.098,137.973z"/>
		<path fill="#262626" d="M48.684,146.726c-0.048,0.01-4.493-3.531-8.969-4.406c-4.52-0.869-7.784,1.648-7.778,1.678
			c-0.055,0.008,4.472,4.731,9.274,5.348C45.956,149.97,48.676,146.693,48.684,146.726z"/>
		<path fill="#262626" d="M44.541,137.552c0.504,4.416,4.895,8.274,4.903,8.226c0.032,0.005,2.38-3.396,1.633-7.586
			c-0.753-4.152-3.952-7.84-3.948-7.879C47.162,130.32,44.028,133.184,44.541,137.552z"/>
		<path fill="#262626" d="M58.325,153.439c-0.046,0.017-5.035-2.893-9.625-3.155c-4.636-0.245-7.52,2.699-7.512,2.731
			c-0.054,0.016,5.144,4.094,10.045,4.051C56.082,157.035,58.316,153.408,58.325,153.439z"/>
		<path fill="#262626" d="M54.343,137.34c0.035,0.003-2.676,3.278-1.526,7.549c1.147,4.323,6.127,7.557,6.13,7.507
			c0.035,0,1.87-3.699,0.496-7.762C58.065,140.61,54.343,137.379,54.343,137.34z"/>
		<path fill="#262626" d="M69.075,158.779c-0.048,0.021-5.544-2.174-10.19-1.807c-4.691,0.393-7.134,3.709-7.123,3.74
			c-0.056,0.022,5.775,3.365,10.716,2.644C67.364,162.658,69.062,158.748,69.075,158.779z"/>
		<path fill="#262626" d="M62.586,143.341c0.035,0-2.193,3.624-0.389,7.709c1.807,4.137,7.345,6.656,7.345,6.605
			c0.035-0.007,1.307-3.93-0.714-7.77C66.81,146.081,62.587,143.381,62.586,143.341z"/>
		<path fill="#262626" d="M80.861,162.568c-0.049,0.031-6.018-1.373-10.663-0.361c-4.691,1.04-6.632,4.667-6.618,4.7
			c-0.055,0.029,6.367,2.538,11.29,1.127C79.736,166.656,80.845,162.54,80.861,162.568z"/>
		<path fill="#262626" d="M72.618,155.868c2.478,3.856,8.54,5.573,8.534,5.521c0.039-0.011,0.695-4.077-1.985-7.602
			c-2.672-3.487-7.363-5.583-7.37-5.621C71.837,148.161,70.146,152.065,72.618,155.868z"/>
		<path fill="#262626" d="M82.57,165.808c-4.633,1.694-6.021,5.562-6.004,5.591c-0.055,0.038,6.913,1.618,11.765-0.485
			c4.794-2.062,5.265-6.301,5.282-6.272C93.565,164.68,87.157,164.149,82.57,165.808z"/>
		<path fill="#262626" d="M81.921,151.669c0.04-0.011-1.062,4.097,2.093,7.515c3.163,3.47,9.714,4.298,9.705,4.248
			c0.042-0.016,0.035-4.134-3.317-7.24C87.063,153.122,81.931,151.706,81.921,151.669z"/>
		<path fill="#262626" d="M34.828,37.839c2.989-4.455,3.948-9.806,3.97-9.843c0.042-0.034-5.418,1.757-8.729,6.665
			c-3.319,4.904-2.741,10.273-2.732,10.229C27.366,44.856,31.805,42.283,34.828,37.839z"/>
		<path fill="#262626" d="M181.727,46.149c0.845-4.908-2.536-11.105-2.575-11.063c-0.037-0.021-3.385,2.365-3.805,7.17
			c-0.396,4.772,1.66,10.297,1.631,10.329C176.946,52.563,180.919,51.018,181.727,46.149z"/>
		<path fill="#262626" d="M169.331,45.388c-4.128-2.044-7.825,0.057-7.819,0.027c0.049,0.014,2.788,4.522,6.552,6.656
			c3.812,2.146,7.77,0.971,7.779,0.942C175.895,53.032,173.512,47.451,169.331,45.388z"/>
		<path fill="#262626" d="M180.391,63.986c-0.027-0.024,4.123-0.988,5.666-5.595c1.582-4.644-0.753-11.064-0.793-11.028
			c-0.031-0.022-3.71,1.831-4.885,6.41C179.231,58.324,180.421,63.958,180.391,63.986z"/>
		<path fill="#262626" d="M173.967,55.997c-3.736-2.52-7.703-0.981-7.692-1.011c0.045,0.02,2.016,4.727,5.403,7.301
			c3.43,2.592,7.515,1.992,7.526,1.962C179.251,64.272,177.752,58.542,173.967,55.997z"/>
		<path fill="#262626" d="M183.569,65.604c-1.819,4.262-1.46,9.924-1.493,9.949c-0.022-0.025,4.219-0.403,6.416-4.682
			c2.24-4.314,0.908-10.861,0.866-10.828C189.332,60.018,185.419,61.313,183.569,65.604z"/>
		<path fill="#262626" d="M176.904,66.893c-3.31-2.954-7.45-1.995-7.438-2.022c0.038,0.022,1.27,4.855,4.243,7.83
			c3.01,2.999,7.14,2.974,7.153,2.948C180.906,75.674,180.256,69.875,176.904,66.893z"/>
		<path fill="#262626" d="M184.987,77.569c-2.413,3.915-2.849,9.521-2.882,9.544c-0.02-0.028,4.226,0.185,7.004-3.709
			c2.821-3.921,2.448-10.498,2.404-10.47C191.493,72.907,187.433,73.631,184.987,77.569z"/>
		<path fill="#262626" d="M178.211,77.914c-2.848-3.343-7.08-2.97-7.062-2.996c0.03,0.026,0.552,4.914,3.077,8.241
			c2.556,3.356,6.647,3.904,6.667,3.879C180.929,87.068,181.095,81.288,178.211,77.914z"/>
		<path fill="#262626" d="M184.703,89.493c-2.931,3.514-4.123,8.981-4.161,9c-0.015-0.031,4.159,0.763,7.438-2.689
			c3.327-3.477,3.875-9.983,3.831-9.96C191.792,85.815,187.67,85.963,184.703,89.493z"/>
		<path fill="#262626" d="M177.949,88.897c-2.353-3.676-6.592-3.891-6.572-3.915c0.029,0.027-0.139,4.897,1.908,8.526
			c2.07,3.659,6.046,4.765,6.068,4.742C179.386,98.286,180.336,92.609,177.949,88.897z"/>
		<path fill="#262626" d="M182.793,101.2c-3.377,3.062-5.293,8.31-5.331,8.323c-0.01-0.031,4.01,1.326,7.721-1.635
			c3.759-2.982,5.188-9.326,5.139-9.307C190.308,98.551,186.208,98.126,182.793,101.2z"/>
		<path fill="#262626" d="M176.189,99.68c-1.832-3.952-5.994-4.747-5.974-4.77c0.022,0.03-0.803,4.811,0.733,8.683
			c1.559,3.903,5.343,5.548,5.366,5.527C176.343,109.161,178.048,103.673,176.189,99.68z"/>
		<path fill="#262626" d="M179.324,112.517c-3.751,2.562-6.353,7.509-6.395,7.518c-0.007-0.033,3.79,1.865,7.859-0.565
			c4.12-2.442,6.384-8.525,6.335-8.512C187.116,110.925,183.115,109.939,179.324,112.517z"/>
		<path fill="#262626" d="M171.852,119.476c0.021,0.042,2.445-5.167,1.143-9.375c-1.28-4.165-5.294-5.526-5.269-5.543
			c0.02,0.032-1.442,4.649-0.441,8.701C168.299,117.341,171.823,119.494,171.852,119.476z"/>
		<path fill="#262626" d="M174.367,123.257c-4.058,2.033-7.31,6.592-7.352,6.596c-0.003-0.034,3.502,2.367,7.862,0.509
			c4.41-1.863,7.472-7.589,7.422-7.581C182.294,122.748,178.467,121.217,174.367,123.257z"/>
		<path fill="#262626" d="M166.021,129.149c0.018,0.045,3.131-4.801,2.409-9.155c-0.707-4.311-4.494-6.207-4.467-6.224
			c0.015,0.037-2.054,4.418-1.614,8.579C162.799,126.545,165.994,129.164,166.021,129.149z"/>
		<path fill="#262626" d="M167.999,133.25c-4.3,1.468-8.167,5.559-8.21,5.554c0.001-0.031,3.145,2.833,7.729,1.58
			c4.64-1.255,8.454-6.526,8.402-6.527C175.92,133.825,172.341,131.785,167.999,133.25z"/>
		<path fill="#262626" d="M158.902,137.973c0.012,0.046,3.78-4.349,3.66-8.773c-0.106-4.378-3.601-6.78-3.571-6.792
			c0.01,0.036-2.637,4.106-2.784,8.302C156.067,134.946,158.87,137.982,158.902,137.973z"/>
		<path fill="#262626" d="M160.286,142.319c-4.477,0.875-8.921,4.416-8.97,4.406c0.008-0.032,2.728,3.244,7.474,2.619
			c4.802-0.616,9.329-5.34,9.273-5.348C168.07,143.968,164.806,141.45,160.286,142.319z"/>
		<path fill="#262626" d="M150.556,145.777c0.009,0.049,4.399-3.81,4.903-8.226c0.513-4.368-2.62-7.231-2.588-7.239
			c0.003,0.039-3.194,3.727-3.948,7.879C148.176,142.382,150.523,145.782,150.556,145.777z"/>
		<path fill="#262626" d="M151.301,150.284c-4.59,0.263-9.579,3.172-9.626,3.155c0.009-0.031,2.243,3.596,7.093,3.627
			c4.9,0.043,10.099-4.035,10.044-4.051C158.819,152.983,155.938,150.039,151.301,150.284z"/>
		<path fill="#262626" d="M147.185,144.889c1.148-4.271-1.562-7.546-1.528-7.549c0,0.039-3.722,3.271-5.099,7.294
			c-1.375,4.062,0.459,7.762,0.496,7.762C141.056,152.445,146.037,149.212,147.185,144.889z"/>
		<path fill="#262626" d="M141.116,156.973c-4.647-0.367-10.144,1.827-10.19,1.807c0.012-0.031,1.711,3.879,6.597,4.577
			c4.94,0.722,10.771-2.621,10.717-2.644C148.249,160.682,145.808,157.365,141.116,156.973z"/>
		<path fill="#262626" d="M137.803,151.05c1.805-4.085-0.424-7.709-0.389-7.709c-0.001,0.04-4.224,2.74-6.241,6.545
			c-2.021,3.84-0.749,7.763-0.714,7.77C130.459,157.706,135.996,155.187,137.803,151.05z"/>
		<path fill="#262626" d="M129.802,162.207c-4.646-1.012-10.613,0.393-10.662,0.361c0.016-0.028,1.124,4.088,5.991,5.466
			c4.923,1.411,11.344-1.098,11.29-1.127C136.434,166.874,134.493,163.247,129.802,162.207z"/>
		<path fill="#262626" d="M120.833,153.788c-2.68,3.524-2.023,7.591-1.985,7.602c-0.006,0.052,6.056-1.665,8.534-5.521
			c2.472-3.803,0.781-7.707,0.82-7.701C128.196,148.205,123.505,150.301,120.833,153.788z"/>
		<path fill="#262626" d="M117.431,165.808c-4.588-1.658-10.995-1.128-11.044-1.167c0.018-0.028,0.488,4.21,5.282,6.272
			c4.853,2.104,11.821,0.523,11.767,0.485C123.451,171.37,122.063,167.502,117.431,165.808z"/>
		<path fill="#262626" d="M118.079,151.669c-0.009,0.037-5.143,1.453-8.479,4.522c-3.354,3.106-3.359,7.225-3.318,7.24
			c-0.009,0.05,6.543-0.778,9.705-4.248C119.141,155.766,118.04,151.658,118.079,151.669z"/>
		<path fill="#262626" d="M172.663,44.891c0.009,0.044,0.587-5.326-2.73-10.229c-3.312-4.908-8.772-6.699-8.729-6.665
			c0.021,0.037,0.979,5.388,3.969,9.843C168.195,42.283,172.634,44.856,172.663,44.891z"/>
	</g>
</g>
<circle fill="none" stroke="#000000" stroke-width="3" stroke-miterlimit="10" cx="100" cy="90" r="50.635"/>
<g>
	
		<circle fill="none" stroke="#000000" stroke-width="2" stroke-linecap="round" stroke-linejoin="round" stroke-dasharray="0.4938,8.8893" cx="100" cy="90" r="44.813"/>
</g>
</svg>
